<svg xmlns="http://www.w3.org/2000/svg" xmlns:xlink="http://www.w3.org/1999/xlink" version="1.1" x="0px" y="0px" viewBox="0 0 100 125" style="enable-background:new 0 0 100 100;" xml:space="preserve"><g><path d="M91.8,45c-3.9,0-5.9,2.3-7.7,4.3c-1.7,2-3.2,3.7-6.2,3.7s-4.5-1.7-6.2-3.7C70,47.3,68,45,64,45c-3.9,0-5.9,2.3-7.7,4.3   c-1.7,2-3.2,3.7-6.2,3.7c-3,0-4.5-1.7-6.2-3.7c-1.8-2-3.8-4.3-7.7-4.3c-3.9,0-5.9,2.3-7.7,4.3c-1.7,2-3.2,3.7-6.2,3.7   c-3,0-4.5-1.7-6.2-3.7c-1.8-2-3.8-4.3-7.7-4.3c-0.6,0-1,0.4-1,1s0.4,1,1,1c3,0,4.5,1.7,6.2,3.7c1.8,2,3.8,4.3,7.7,4.3   c3.9,0,5.9-2.3,7.7-4.3c1.7-2,3.2-3.7,6.2-3.7c3,0,4.5,1.7,6.2,3.7c1.8,2,3.8,4.3,7.7,4.3c3.9,0,5.9-2.3,7.7-4.3   c1.7-2,3.2-3.7,6.2-3.7c3,0,4.5,1.7,6.2,3.7c1.8,2,3.8,4.3,7.7,4.3c3.9,0,5.9-2.3,7.7-4.3c1.7-2,3.2-3.7,6.2-3.7c0.6,0,1-0.4,1-1   S92.4,45,91.8,45z"/></g></svg>